<?xml version="1.0" encoding="UTF-8"?>
<svg width="29px" height="29px" viewBox="0 0 29 29" version="1.1" xmlns="http://www.w3.org/2000/svg" xmlns:xlink="http://www.w3.org/1999/xlink">
    <!-- Generator: Sketch 43.1 (39012) - http://www.bohemiancoding.com/sketch -->
    <title>denglu_icon_guanbi</title>
    <desc>Created with Sketch.</desc>
    <defs></defs>
    <g id="Page-1" stroke="none" stroke-width="1" fill="none" fill-rule="evenodd">
        <g id="denglu_icon_guanbi" transform="translate(14.284271, 14.284271) rotate(-45.000000) translate(-14.284271, -14.284271) translate(-5.715729, -5.715729)" fill="#231815">
            <path d="M0,19.85 C0,19.85 2.5,19.671 6.25,19.466 C10,19.223 15,19.034 20,18.8 C21.25,18.731 22.5,18.662 23.73,18.595 C24.961,18.511 26.172,18.45 27.344,18.437 C28.516,18.441 29.648,18.467 30.723,18.549 C31.797,18.612 32.813,18.697 33.75,18.8 C37.5,19.176 40,19.85 40,19.85 L40,20.15 C40,20.15 37.5,20.824 33.75,21.2 C32.813,21.303 31.797,21.388 30.723,21.451 C29.648,21.533 28.516,21.559 27.344,21.563 C26.172,21.55 24.961,21.489 23.73,21.405 C22.5,21.338 21.25,21.269 20,21.2 C15,20.966 10,20.777 6.25,20.534 C2.5,20.329 0,20.15 0,20.15 L0,19.85 Z" id="Fill-1"></path>
            <path d="M19.85,40 C19.85,40 19.671,37.5 19.466,33.75 C19.223,30 19.034,25 18.8,20 C18.731,18.75 18.662,17.5 18.595,16.27 C18.511,15.039 18.45,13.828 18.437,12.656 C18.441,11.484 18.467,10.352 18.549,9.277 C18.612,8.203 18.697,7.187 18.8,6.25 C19.176,2.5 19.85,0 19.85,0 L20.15,0 C20.15,0 20.824,2.5 21.2,6.25 C21.303,7.187 21.388,8.203 21.451,9.277 C21.533,10.352 21.559,11.484 21.563,12.656 C21.55,13.828 21.489,15.039 21.405,16.27 C21.338,17.5 21.269,18.75 21.2,20 C20.966,25 20.777,30 20.534,33.75 C20.329,37.5 20.15,40 20.15,40 L19.85,40 Z" id="Fill-3"></path>
        </g>
    </g>
</svg>