<?xml version="1.0" encoding="UTF-8"?>
<svg width="18px" height="32px" viewBox="0 0 18 32" version="1.1" xmlns="http://www.w3.org/2000/svg" xmlns:xlink="http://www.w3.org/1999/xlink">
    <!-- Generator: Sketch 43.1 (39012) - http://www.bohemiancoding.com/sketch -->
    <title>xiangqing_icon_xiaji</title>
    <desc>Created with Sketch.</desc>
    <defs></defs>
    <g id="1期" stroke="none" stroke-width="1" fill="none" fill-rule="evenodd">
        <g id="详情-1-copy-6" transform="translate(-708.000000, -6309.000000)" fill="#7F7F7F">
            <g id="Group-Copy-2" transform="translate(0.000000, 6281.000000)">
                <g id="xiangqing_icon_xiaji" transform="translate(693.000000, 27.000000)">
                    <path d="M6.19880836,28.6124162 C5.90480836,27.6954162 5.70780836,26.7794162 5.55080836,25.8624162 C5.38080836,24.9454162 5.27780836,24.0294162 5.18080836,23.1124162 C5.02880836,21.2794162 4.90680836,19.4454162 5.09780836,17.6124162 C5.29180836,15.7794162 5.77480836,13.9454162 5.86480836,12.1124162 C5.96880836,10.2794162 5.80580836,8.44541622 5.52780836,6.61241622 L5.42180836,5.91841622 L6.34880836,5.79141622 C7.26580836,5.66541622 8.18180836,5.50141622 9.09880836,5.40841622 C10.0158084,5.30441622 10.9318084,5.25141622 11.8488084,5.19441622 C13.6818084,5.08441622 15.5158084,4.96341622 17.3488084,5.01041622 C19.1818084,5.06641622 21.0158084,5.20241622 22.8488084,5.43141622 C23.7658084,5.54341622 24.6818084,5.67441622 25.5988084,5.84541622 C26.5158084,6.00941622 27.4318084,6.20041622 28.3488084,6.46241622 L28.3488084,6.76241622 C27.4318084,7.02441622 26.5158084,7.21541622 25.5988084,7.37941622 C24.6818084,7.55041622 23.7658084,7.68141622 22.8488084,7.79341622 C21.0158084,8.02241622 19.1818084,8.15841622 17.3488084,8.21441622 C15.5158084,8.26141622 13.6818084,8.14041622 11.8488084,8.03041622 C10.9318084,7.97341622 10.0158084,7.92041622 9.09880836,7.81641622 C8.18180836,7.72341622 7.04049479,7.53366929 7.04049479,7.53366929 C7.04049479,7.53366929 7.03080142,7.60969398 7.02604667,7.64770673 C6.83990038,9.13588897 6.74838657,10.6244821 6.83280836,12.1124162 C6.92280836,13.9454162 7.40580836,15.7794162 7.59980836,17.6124162 C7.79080836,19.4454162 7.66880836,21.2794162 7.51680836,23.1124162 C7.41980836,24.0294162 7.31680836,24.9454162 7.14680836,25.8624162 C6.98980836,26.7794162 6.79280836,27.6954162 6.49880836,28.6124162 L6.19880836,28.6124162 Z" id="Fill-1" transform="translate(16.674404, 16.806208) rotate(-225.000000) translate(-16.674404, -16.806208) "></path>
                </g>
            </g>
        </g>
    </g>
</svg>