<?xml version="1.0" encoding="UTF-8"?>
<svg width="40px" height="40px" viewBox="0 0 40 40" version="1.1" xmlns="http://www.w3.org/2000/svg" xmlns:xlink="http://www.w3.org/1999/xlink">
    <!-- Generator: Sketch 43.1 (39012) - http://www.bohemiancoding.com/sketch -->
    <title>guige_icon_shouhou</title>
    <desc>Created with Sketch.</desc>
    <defs></defs>
    <g id="1期" stroke="none" stroke-width="1" fill="none" fill-rule="evenodd">
        <g id="guige_icon_shouhou">
            <path d="M28.5388128,24.0701187 L28.5388128,31 L26.9178082,31 L26.9178082,29.837109 L14.8173516,29.837109 L14.8173516,31 L13.196347,31 L13.196347,24.0701187 L28.5388128,24.0701187 Z M14.8173516,28.3182309 L26.9178082,28.3182309 L26.9178082,25.5415318 L14.8173516,25.5415318 L14.8173516,28.3182309 Z M13.196347,15.3128371 C12.3744292,16.3096009 11.4840183,17.2351672 10.5022831,18.1132686 L10,16.4282632 C12.3744292,14.1736785 14.0639269,11.7055016 15.0456621,9.04746494 L16.6438356,9.37971953 C16.369863,10.0916936 16.0730594,10.7799353 15.7305936,11.4681769 L21.3926941,11.4681769 C21.0502283,10.6612729 20.6849315,9.94929881 20.2739726,9.28478964 L21.9634703,9 C22.3287671,9.73570658 22.6712329,10.566343 22.9908676,11.4681769 L29.6347032,11.4681769 L29.6347032,12.8921251 L22.6940639,12.8921251 L22.6940639,14.6245955 L28.630137,14.6245955 L28.630137,15.9773463 L22.6940639,15.9773463 L22.6940639,17.6386192 L28.6757991,17.6386192 L28.6757991,18.99137 L22.6940639,18.99137 L22.6940639,20.7713053 L30,20.7713053 L30,22.218986 L13.196347,22.218986 L13.196347,15.3128371 Z M21.0730594,20.7713053 L21.0730594,18.99137 L14.7716895,18.99137 L14.7716895,20.7713053 L21.0730594,20.7713053 Z M21.0730594,17.6386192 L21.0730594,15.9773463 L14.7716895,15.9773463 L14.7716895,17.6386192 L21.0730594,17.6386192 Z M21.0730594,14.6245955 L21.0730594,12.8921251 L14.9315068,12.8921251 C14.8630137,12.987055 14.8173516,13.0582524 14.7716895,13.1531823 L14.7716895,14.6245955 L21.0730594,14.6245955 Z" id="售" fill="#7F7F7F"></path>
            <ellipse id="Oval-23" stroke="#7F7F7F" stroke-width="2" cx="20" cy="20" rx="19" ry="19"></ellipse>
        </g>
    </g>
</svg>