<?xml version="1.0" encoding="UTF-8"?>
<svg width="40px" height="40px" viewBox="0 0 40 40" version="1.1" xmlns="http://www.w3.org/2000/svg" xmlns:xlink="http://www.w3.org/1999/xlink">
    <!-- Generator: Sketch 43.1 (39012) - http://www.bohemiancoding.com/sketch -->
    <title>guige_icon_maozhong</title>
    <desc>Created with Sketch.</desc>
    <defs></defs>
    <g id="1期" stroke="none" stroke-width="1" fill="none" fill-rule="evenodd">
        <g id="guige_icon_maozhong" fill="#7F7F7F">
            <rect id="Rectangle-22" x="6" y="38" width="28" height="2" rx="1"></rect>
            <rect id="Rectangle-23" x="19" y="0" width="2" height="40" rx="1"></rect>
            <rect id="Rectangle-24" x="4" y="4" width="32" height="2" rx="1"></rect>
            <g id="Group-16" transform="translate(0.000000, 4.000000)">
                <path d="M4.86264369,7.98575376 C4.65161162,8.52540306 4.44870258,9.05256846 4.25491787,9.56520838 C2.85030988,13.2809719 2,16.0750162 2,17 C2,19.209139 3.790861,21 6,21 C8.209139,21 10,19.209139 10,17 C10,16.0750162 9.14969012,13.2809719 7.74508213,9.56520838 C7.55129742,9.05256846 7.34838838,8.52540306 7.13735631,7.98575376 C6.77053094,7.04771124 6.38856654,6.09551808 6,5.14638208 C5.61143344,6.09551811 5.22946906,7.04771125 4.86264369,7.98575376 Z M6,23 C2.6862915,23 0,20.3137085 0,17 C0,13.6862915 6,0 6,0 C6,0 12,13.6862915 12,17 C12,20.3137085 9.3137085,23 6,23 Z" id="Oval-17" fill-rule="nonzero"></path>
                <path d="M0,17 L12,17 C12,17 10.6621094,22 6,22 C1.33789062,22 0,17 0,17 Z" id="Rectangle-25"></path>
            </g>
            <g id="Group-16-Copy" transform="translate(28.000000, 4.000000)">
                <path d="M4.86264369,7.98575376 C4.65161162,8.52540306 4.44870258,9.05256846 4.25491787,9.56520838 C2.85030988,13.2809719 2,16.0750162 2,17 C2,19.209139 3.790861,21 6,21 C8.209139,21 10,19.209139 10,17 C10,16.0750162 9.14969012,13.2809719 7.74508213,9.56520838 C7.55129742,9.05256846 7.34838838,8.52540306 7.13735631,7.98575376 C6.77053094,7.04771124 6.38856654,6.09551808 6,5.14638208 C5.61143344,6.09551811 5.22946906,7.04771125 4.86264369,7.98575376 Z M6,23 C2.6862915,23 0,20.3137085 0,17 C0,13.6862915 6,0 6,0 C6,0 12,13.6862915 12,17 C12,20.3137085 9.3137085,23 6,23 Z" id="Oval-17" fill-rule="nonzero"></path>
                <path d="M0,17 L12,17 C12,17 10.6621094,22 6,22 C1.33789062,22 0,17 0,17 Z" id="Rectangle-25"></path>
            </g>
        </g>
    </g>
</svg>