<?xml version="1.0" encoding="UTF-8"?>
<svg width="37px" height="40px" viewBox="0 0 37 40" version="1.1" xmlns="http://www.w3.org/2000/svg" xmlns:xlink="http://www.w3.org/1999/xlink">
    <!-- Generator: Sketch 43.1 (39012) - http://www.bohemiancoding.com/sketch -->
    <title>guige_icon_chushui</title>
    <desc>Created with Sketch.</desc>
    <defs></defs>
    <g id="1期" stroke="none" stroke-width="1" fill="none" fill-rule="evenodd">
        <g id="guige_icon_chushui" fill-rule="nonzero" fill="#7F7F7F">
            <path d="M9.084651,14.0989064 C8.11077117,15.6603457 4.84312494,20.4967455 5.08062918,20.1360772 C3.75243952,22.1530345 2.9788642,23.5514601 2.51199908,24.8620114 C2.18622671,25.7764969 2.026405,26.6229039 2.026405,27.45644 C2.026405,33.2688932 6.73876715,37.98105 12.551525,37.98105 C18.3639839,37.98105 23.0754,33.2691921 23.0754,27.45644 C23.0754,24.8245947 20.9053933,19.4001594 17.5414318,13.2291483 C16.1539758,10.6839329 14.6609316,8.19772359 13.3888142,6.28965433 C13.3386828,6.21446141 13.2890915,6.14047018 13.2400712,6.06772159 C12.1260956,8.81991236 10.7611447,11.4109533 9.084651,14.0989064 Z M12.551525,2.0739 C13.842205,2.34152 25.0754,20.54008 25.0754,27.45644 C25.0754,34.3735 19.468815,39.98105 12.551525,39.98105 C5.634235,39.98105 0.026405,34.3735 0.026405,27.45644 C0.026405,20.54008 8.44689,15.06644 12.551525,2.0739 Z M29.0752712,6.57719927 C27.4362087,10.7600933 27.5066563,10.538517 27.6698602,11.3101832 C28.0525716,13.1200285 29.8313574,14.2774679 31.6417737,13.8946342 C33.4518216,13.511837 34.6088993,11.7340903 34.2260867,9.92391418 C34.0474485,9.0792016 32.7305438,7.10787239 30.9057358,4.97410491 C30.6007261,4.6174537 30.2900659,4.26591876 29.9845389,3.93060073 C29.7399225,4.78488596 29.4381884,5.65103309 29.0752712,6.57719927 Z M36.18281,9.51011 C36.79417,12.401 34.94625,15.240025 32.05559,15.851355 C29.16483,16.46264 26.32444,14.614845 25.71313,11.723955 C25.10172,8.833065 28.138385,5.80127 28.704425,0.00815 C29.268015,0.00595 35.57145,6.61922 36.18281,9.51011 Z" id="Shape"></path>
        </g>
    </g>
</svg>