<?xml version="1.0" encoding="UTF-8"?>
<svg width="40px" height="34px" viewBox="0 0 40 34" version="1.1" xmlns="http://www.w3.org/2000/svg" xmlns:xlink="http://www.w3.org/1999/xlink">
    <!-- Generator: Sketch 43.1 (39012) - http://www.bohemiancoding.com/sketch -->
    <title>guige_icon_fahuo</title>
    <desc>Created with Sketch.</desc>
    <defs></defs>
    <g id="1期" stroke="none" stroke-width="1" fill="none" fill-rule="evenodd">
        <g id="guige_icon_fahuo" fill="#7F7F7F">
            <g id="Group-26">
                <path d="M2,17.8752441 L1.29409599,19.4001427 L2,18.8010815 L2,17.8752441 Z M11.0651855,0 L9.06518555,2 L11.0651855,2 L11.0651855,0 Z M38,0 L40,2 L38,2 L38,0 Z M11.0651855,11.1079663 L11.0651855,2 L38,2 L38,28 L40,28 L40,0 L9.06518555,0 L9.06518555,10.1821289 L0,17.8752441 L0,28 L2,28 L2,18.8010815 L11.0651855,11.1079663 Z M38,0 L40,2 L38,2 L38,0 Z M11.0651855,0 L9.06518555,2 L11.0651855,2 L11.0651855,0 Z M2,17.8752441 L1.29409599,19.4001427 L2,18.8010815 L2,17.8752441 Z M38,28 L40,28 L40,0 L9.06518555,0 L9.06518555,10.1821289 L0,17.8752441 L0,28 L2,28 L2,18.8010815 L11.0651855,11.1079663 L11.0651855,2 L38,2 L38,28 Z" id="Rectangle-11" fill-rule="nonzero"></path>
                <ellipse id="Oval-22" cx="1" cy="28" rx="1" ry="1"></ellipse>
                <circle id="Oval-22-Copy" cx="39" cy="28" r="1"></circle>
            </g>
            <g id="Group-24" transform="translate(6.000000, 24.000000)">
                <path d="M5,8 C6.65685425,8 8,6.65685425 8,5 C8,3.34314575 6.65685425,2 5,2 C3.34314575,2 2,3.34314575 2,5 C2,6.65685425 3.34314575,8 5,8 Z M5,10 C2.23857625,10 0,7.76142375 0,5 C0,2.23857625 2.23857625,0 5,0 C7.76142375,0 10,2.23857625 10,5 C10,7.76142375 7.76142375,10 5,10 Z" id="Oval-21" fill-rule="nonzero"></path>
                <path d="M23,8 C24.6568542,8 26,6.65685425 26,5 C26,3.34314575 24.6568542,2 23,2 C21.3431458,2 20,3.34314575 20,5 C20,6.65685425 21.3431458,8 23,8 Z M23,10 C20.2385763,10 18,7.76142375 18,5 C18,2.23857625 20.2385763,0 23,0 C25.7614237,0 28,2.23857625 28,5 C28,7.76142375 25.7614237,10 23,10 Z" id="Oval-21-Copy" fill-rule="nonzero"></path>
                <rect id="Rectangle-14" x="8" y="4" width="11" height="2"></rect>
            </g>
            <g id="Group-25" transform="translate(6.000000, 11.000000)">
                <circle id="Oval-22-Copy-2" cx="8" cy="1" r="1"></circle>
                <ellipse id="Oval-22-Copy-3" cx="1" cy="9" rx="1" ry="1"></ellipse>
                <g id="Group-23" transform="translate(1.000000, 1.000000)">
                    <rect id="Rectangle-14-Copy" transform="translate(7.000000, 4.500000) rotate(-90.000000) translate(-7.000000, -4.500000) " x="2.5" y="3.5" width="9" height="2"></rect>
                    <rect id="Rectangle-14-Copy-2" transform="translate(4.000000, 8.000000) rotate(-180.000000) translate(-4.000000, -8.000000) " x="1.36424205e-12" y="7" width="8" height="2"></rect>
                </g>
            </g>
        </g>
    </g>
</svg>