<?xml version="1.0" encoding="UTF-8"?>
<svg width="40px" height="40px" viewBox="0 0 40 40" version="1.1" xmlns="http://www.w3.org/2000/svg" xmlns:xlink="http://www.w3.org/1999/xlink">
    <!-- Generator: Sketch 43.1 (39012) - http://www.bohemiancoding.com/sketch -->
    <title>guige_icon_candi</title>
    <desc>Created with Sketch.</desc>
    <defs></defs>
    <g id="1期" stroke="none" stroke-width="1" fill="none" fill-rule="evenodd">
        <g id="guige_icon_candi" fill-rule="nonzero" fill="#7F7F7F">
            <path d="M28.0017421,22 L32.5283505,22 C33.1731529,22 33.904753,22.5623303 34.0730815,23.1866416 L37.8875335,37.334011 C38.0020467,37.7587275 37.8154885,38 37.3667531,38 L2.55244241,38 C2.10392561,38 1.91744261,37.757638 2.03166207,37.334011 L5.84611406,23.1866416 C6.0163586,22.555224 6.74174683,22 7.40589062,22 L11.9667079,22 C12.5189926,22 12.9667079,21.5522847 12.9667079,21 C12.9667079,20.4477153 12.5189926,20 11.9667079,20 L7.40589062,20 C5.83804262,20 4.3207559,21.161356 3.91507267,22.665989 L0.100620672,36.8133584 C-0.356824277,38.5099698 0.789664304,40 2.55244241,40 L37.3667531,40 C39.1274105,40 40.27693,38.5133457 39.8185749,36.8133584 L36.0041229,22.665989 C35.6007869,21.1700619 34.0785191,20 32.5283505,20 L28.0017421,20 C27.4494573,20 27.0017421,20.4477153 27.0017421,21 C27.0017421,21.5522847 27.4494573,22 28.0017421,22 Z" id="Rectangle-21"></path>
            <g id="Group-13" transform="translate(10.000000, 0.000000)">
                <path d="M13.2700084,21.0675095 C13.8812185,20.0138704 14.4494795,18.9923416 14.9663749,18.0132501 C16.8990347,14.3524502 18,11.4714649 18,10 C18,5.581722 14.418278,2 10,2 C5.581722,2 2,5.581722 2,10 C2,11.4714649 3.10096529,14.3524502 5.03362509,18.0132501 C5.55052054,18.9923416 6.11878147,20.0138704 6.72999156,21.0675095 C7.76972683,22.8598651 8.88357936,24.6607616 10,26.3852631 C11.1164206,24.6607616 12.2302732,22.8598651 13.2700084,21.0675095 Z M10,30 C10,30 0,15.5228475 0,10 C0,4.4771525 4.4771525,0 10,0 C15.5228475,0 20,4.4771525 20,10 C20,15.5228475 10,30 10,30 Z" id="Oval-15"></path>
                <path d="M10,16 C6.6862915,16 4,13.3137085 4,10 C4,6.6862915 6.6862915,4 10,4 C13.3137085,4 16,6.6862915 16,10 C16,13.3137085 13.3137085,16 10,16 Z M10,14 C12.209139,14 14,12.209139 14,10 C14,7.790861 12.209139,6 10,6 C7.790861,6 6,7.790861 6,10 C6,12.209139 7.790861,14 10,14 Z" id="Oval-16"></path>
            </g>
        </g>
    </g>
</svg>