<?xml version="1.0" encoding="UTF-8"?>
<svg width="18px" height="14px" viewBox="0 0 18 14" version="1.1" xmlns="http://www.w3.org/2000/svg" xmlns:xlink="http://www.w3.org/1999/xlink">
    <!-- Generator: Sketch 43.1 (39012) - http://www.bohemiancoding.com/sketch -->
    <title>jishi_icon_xuanze</title>
    <desc>Created with Sketch.</desc>
    <defs>
        <polygon id="path-1" points="17.8755882 -8.75000005e-05 0.000529411765 -8.75000005e-05 0.000529411765 13.8658186 17.8755882 13.8658186 17.8755882 -8.75000005e-05"></polygon>
    </defs>
    <g id="1期" stroke="none" stroke-width="1" fill="none" fill-rule="evenodd">
        <g id="jishi_icon_xuanze" transform="translate(9.000000, 7.000000) scale(1, -1) translate(-9.000000, -7.000000) ">
            <mask id="mask-2" fill="white">
                <use xlink:href="#path-1"></use>
            </mask>
            <g id="Clip-2"></g>
            <path d="M17.4827647,12.9647 C16.6431176,12.165825 15.8384118,11.348575 15.0633529,10.51645 C14.2448824,9.6257 13.4475882,8.72445 12.6757059,7.81095 C11.8985294,6.8992 11.1562941,5.969075 10.4225294,5.03545 C10.0508824,4.5717 9.71523529,4.0887 9.36052941,3.615325 C9.30441176,3.541825 9.19429412,3.393075 9.19429412,3.393075 L7.93429412,4.950575 C7.18570588,5.8772 6.363,6.765325 5.55088235,7.659575 L4.34911765,9.008825 C3.94252941,9.455075 3.57194118,9.9197 3.19605882,10.382575 C2.835,10.85245 2.46652941,11.31795 2.13405882,11.8027 C1.92758824,12.0827 1.54852941,12.6602 1.54852941,12.6602 C1.54852941,12.6602 3.61535294,12.470325 5.02676471,12.37495 C5.73194118,12.33645 6.43817647,12.297075 7.14441176,12.2997 C7.84958824,12.28395 8.55582353,12.30845 9.26205882,12.3207 C10.6734706,12.346075 12.0848824,12.4187 13.4973529,12.51845 C14.8261765,12.6217 16.1539412,12.75645 17.4827647,12.9647 L17.4827647,12.9647 Z M17.7326471,13.1677 C16.3201765,13.401325 14.9087647,13.532575 13.4973529,13.64195 C12.0848824,13.7417 10.6734706,13.814325 9.26205882,13.8397 C8.55582353,13.85195 7.84958824,13.87645 7.14441176,13.8607 C6.43817647,13.863325 5.73194118,13.82395 5.02676471,13.78545 C3.61535294,13.690075 2.20288235,13.546575 0.791470588,13.43895 L0.000529411765,13.37945 L0.420882353,12.892075 C0.813705882,12.43795 1.20970588,11.98645 1.56652941,11.51395 C1.94029412,11.0502 2.277,10.56895 2.62217647,10.090325 C2.95147059,9.6047 3.28711765,9.1217 3.58570588,8.620325 L4.50158824,7.125825 C5.10088235,6.12395 5.69064706,5.116825 6.35347059,4.147325 L8.34511765,1.238825 L9.19323529,-0.000175 L10.179,1.238825 C10.5485294,1.704325 10.9339412,2.16195 11.2812353,2.638825 C11.6317059,3.11395 12.0022941,3.578575 12.3368824,4.06245 C13.0145294,5.024075 13.6847647,5.99095 14.319,6.97445 C14.9585294,7.9562 15.5726471,8.951075 16.1666471,9.95645 C16.7521765,10.965325 17.3112353,11.987325 17.8226471,13.0347 L17.8755882,13.144075 L17.7326471,13.1677 Z" id="Fill-1" fill="#7F7F7F" mask="url(#mask-2)"></path>
        </g>
    </g>
</svg>