<?xml version="1.0" encoding="UTF-8"?>
<svg width="41px" height="36px" viewBox="0 0 41 36" version="1.1" xmlns="http://www.w3.org/2000/svg" xmlns:xlink="http://www.w3.org/1999/xlink">
    <!-- Generator: Sketch 43.1 (39012) - http://www.bohemiancoding.com/sketch -->
    <title>jishi_icon_gouwuche</title>
    <desc>Created with Sketch.</desc>
    <defs></defs>
    <g id="1期" stroke="none" stroke-width="1" fill="none" fill-rule="evenodd">
        <g id="jishi_icon_gouwuche" fill="#7F7F7F">
            <path d="M9.8634,4.764 C12.4014,4.432 13.9384,4.214 16.4764,4.045 C17.7454,3.948 19.0144,3.901 20.2824,3.827 C21.5514,3.759 22.8204,3.732 24.0894,3.682 C25.3584,3.626 26.6274,3.626 27.8954,3.599 C29.1644,3.574 30.4334,3.555 31.7024,3.576 C34.2394,3.582 36.7774,3.721 39.3154,3.898 L40.6704,3.993 L40.3024,5.155 C39.7644,6.85 39.2024,8.54 38.6864,10.24 C38.4154,11.088 38.1804,11.943 37.9334,12.796 C37.6784,13.647 37.4654,14.509 37.2424,15.367 C36.7884,17.083 36.3974,18.814 36.0214,20.549 C35.6444,22.283 35.3064,24.028 34.9884,25.777 L34.8914,26.312 L34.2604,26.348 C30.6744,26.556 27.0884,26.819 23.5024,26.914 C19.9164,27.021 16.3304,27.108 12.7444,27.175 L11.5174,27.198 L11.2044,25.935 C10.9494,24.911 10.7374,23.877 10.5054,22.848 C10.2824,21.817 10.0374,20.79 9.8324,19.755 C9.4294,17.684 8.9904,15.62 8.6164,13.542 C8.2344,11.465 7.8554,9.388 7.5154,7.302 C7.3354,6.262 7.1664,5.219 7.0084,4.173 C6.88707874,3.38629567 6.76178263,2.59959134 6.64620419,1.81117545 C6.60840367,1.55332 6.61974025,1.63046996 6.61974025,1.63046996 C6.61974025,1.63046996 6.49441529,1.62113513 6.43175282,1.61640716 C5.51063521,1.54690758 4.58951761,1.46862632 3.6684,1.379 C2.4464,1.266 1.2234,1.162 0.0004,1.011 L0.0004,0.712 C1.2234,0.561 2.4464,0.457 3.6684,0.344 C4.8914,0.225 6.1144,0.126 7.3374,0.041 L7.9314,0 L8.1394,0.686 C8.4464,1.699 8.7294,2.717 9.0184,3.734 C9.3114,4.75 9.5924,5.768 9.8634,6.789 C10.4244,8.827 10.9464,10.872 11.4654,12.919 C11.9924,14.963 12.4554,17.022 12.9524,19.073 C13.1984,20.1 13.4034,21.135 13.6314,22.165 C13.7541515,22.7460986 13.8832441,23.325929 14.0076091,23.9068121 C14.1041096,24.3575462 14.0333033,24.0476247 14.0333033,24.0476247 C14.0333033,24.0476247 14.1345647,24.0496343 14.1851955,24.0506453 C17.2909303,24.1126622 20.3966652,24.1903303 23.5024,24.283 C26.8156159,24.3716974 33.4420476,24.8006922 33.4420476,24.8006922 L33.7190032,24.813953 C33.7190032,24.813953 33.7584635,24.6847699 33.7781429,24.6201678 C34.2147748,23.1868216 34.634588,21.7499636 35.0274,20.306 C35.4934,18.593 35.9444,16.877 36.3334,15.145 C36.5314,14.28 36.7404,13.418 36.9064,12.545 C37.0804,11.675 37.2664,10.807 37.4164,9.93 C37.6448621,8.70569526 37.8512236,7.47598813 38.059233,6.24672973 C38.1480389,5.72191959 38.1027919,6.01129226 38.1027919,6.01129226 C38.1027919,6.01129226 37.8695152,6.02611495 37.7528774,6.03334875 C35.7357547,6.15844942 33.7187615,6.24723131 31.7024,6.252 C30.4334,6.273 29.1644,6.254 27.8954,6.229 C26.6274,6.203 25.3584,6.202 24.0894,6.146 C22.8204,6.096 21.5514,6.069 20.2824,6.001 C19.0144,5.927 17.7454,5.88 16.4764,5.783 C13.9384,5.614 12.4014,5.396 9.8634,5.064 L9.8634,4.764 Z" id="Fill-1"></path>
            <path d="M19.5076,32.2362 C19.5076,32.2362 19.4956,32.1672 19.4746,32.0372 C19.4536,31.9092 19.4016,31.7192 19.2816,31.5102 C19.1696,31.2982 18.9706,31.0712 18.6986,30.9002 C18.4266,30.7282 18.0826,30.6212 17.7456,30.6062 C17.4366,30.5882 17.0336,30.6442 16.8996,30.7052 L16.7316,30.7212 L16.6346,30.7292 L16.5866,30.7342 C16.5166,30.7322 16.6736,30.7362 16.6566,30.7362 L16.6536,30.7372 L16.6476,30.7392 L16.6356,30.7422 C16.5706,30.7592 16.5046,30.7642 16.4426,30.7902 C16.3186,30.8322 16.1956,30.8672 16.0766,30.9232 C15.8326,31.0172 15.5726,31.1452 15.3286,31.3562 C15.2116,31.4632 15.1106,31.5932 15.0226,31.7402 C14.9846,31.8162 14.9436,31.9012 14.9276,31.9432 C14.8976,31.9262 14.8766,32.2292 14.8576,32.2362 C14.8106,32.5932 14.8646,32.9702 15.0316,33.3142 C15.2046,33.6512 15.4656,33.9622 15.7996,34.1722 C15.9576,34.2712 16.1686,34.3672 16.3136,34.4102 C16.3666,34.4432 16.5296,34.4592 16.6516,34.4802 C16.6946,34.4942 16.8326,34.5082 16.9186,34.5172 C17.3086,34.5342 17.7106,34.4972 18.0796,34.3642 C18.8316,34.1102 19.3076,33.4742 19.4236,33.0022 C19.4966,32.7612 19.5106,32.5822 19.5096,32.4402 C19.5086,32.3022 19.5076,32.2282 19.5076,32.2282 L19.5076,32.2362 Z M19.8076,32.2442 C19.8076,32.2442 19.7986,32.5372 19.6696,33.0702 C19.5316,33.5792 19.2976,34.3512 18.5686,35.0962 C18.2016,35.4522 17.6926,35.7772 17.0756,35.9142 C16.9106,35.9452 16.7916,35.9762 16.5756,35.9872 C16.4386,35.9922 16.3366,36.0112 16.1286,35.9912 C15.7456,35.9712 15.4346,35.8982 15.0846,35.7832 C14.4076,35.5472 13.7586,35.1032 13.2856,34.4762 C12.8096,33.8522 12.5106,33.0592 12.4576,32.2362 C12.4586,31.9502 12.4316,31.9572 12.4596,31.6502 C12.4756,31.3982 12.5146,31.2012 12.5506,30.9922 C12.6426,30.5812 12.7856,30.1762 12.9886,29.7992 C13.3906,29.0452 14.0416,28.4182 14.8086,28.0662 C15.5506,27.7242 16.4926,27.6552 17.0946,27.8082 C17.9666,27.9892 18.4756,28.4082 18.9026,28.8772 C19.3016,29.3552 19.5116,29.8602 19.6336,30.2862 C19.7636,30.7122 19.7836,31.0812 19.8116,31.3632 C19.8436,31.9342 19.8076,32.2362 19.8076,32.2362 L19.8076,32.2442 Z" id="Fill-4"></path>
            <path d="M28.391,31.2361 C28.391,31.2361 28.403,31.3051 28.424,31.4351 C28.445,31.5631 28.497,31.7531 28.617,31.9621 C28.729,32.1741 28.928,32.4011 29.2,32.5721 C29.472,32.7441 29.816,32.8511 30.153,32.8661 C30.462,32.8841 30.865,32.8281 30.999,32.7671 L31.167,32.7511 L31.264,32.7431 L31.312,32.7381 C31.382,32.7401 31.225,32.7361 31.242,32.7361 L31.245,32.7351 L31.251,32.7331 L31.263,32.7301 C31.328,32.7131 31.394,32.7081 31.456,32.6821 C31.58,32.6401 31.703,32.6051 31.822,32.5491 C32.066,32.4551 32.325,32.3271 32.57,32.1171 C32.687,32.0091 32.788,31.8791 32.876,31.7321 C32.914,31.6561 32.955,31.5711 32.971,31.5291 C33.001,31.5461 33.022,31.2431 33.041,31.2361 C33.088,30.8791 33.034,30.5031 32.867,30.1581 C32.694,29.8211 32.433,29.5101 32.098,29.3001 C31.941,29.2011 31.73,29.1051 31.585,29.0621 C31.532,29.0291 31.369,29.0131 31.247,28.9921 C31.204,28.9781 31.066,28.9641 30.98,28.9551 C30.59,28.9381 30.188,28.9751 29.819,29.1081 C29.067,29.3621 28.591,29.9981 28.475,30.4701 C28.402,30.7111 28.388,30.8901 28.389,31.0321 C28.39,31.1701 28.391,31.2441 28.391,31.2441 L28.391,31.2361 Z M28.091,31.2281 C28.091,31.2281 28.1,30.9351 28.229,30.4021 C28.367,29.8931 28.601,29.1211 29.33,28.3761 C29.697,28.0201 30.206,27.6951 30.823,27.5581 C30.988,27.5271 31.107,27.4961 31.323,27.4851 C31.46,27.4801 31.562,27.4611 31.77,27.4811 C32.153,27.5011 32.464,27.5741 32.814,27.6891 C33.491,27.9251 34.14,28.3691 34.613,28.9961 C35.089,29.6201 35.388,30.4131 35.441,31.2361 C35.44,31.5221 35.467,31.5151 35.439,31.8221 C35.423,32.0741 35.384,32.2711 35.348,32.4801 C35.256,32.8911 35.113,33.2961 34.91,33.6731 C34.508,34.4271 33.857,35.0541 33.09,35.4061 C32.348,35.7481 31.406,35.8171 30.804,35.6641 C29.932,35.4831 29.423,35.0641 28.996,34.5951 C28.597,34.1171 28.387,33.6121 28.265,33.1861 C28.135,32.7601 28.115,32.3911 28.087,32.1091 C28.054,31.5381 28.091,31.2361 28.091,31.2361 L28.091,31.2281 Z" id="Fill-7"></path>
        </g>
    </g>
</svg>