<?xml version="1.0" encoding="UTF-8"?>
<svg width="27px" height="27px" viewBox="0 0 27 27" version="1.1" xmlns="http://www.w3.org/2000/svg" xmlns:xlink="http://www.w3.org/1999/xlink">
    <!-- Generator: Sketch 43.1 (39012) - http://www.bohemiancoding.com/sketch -->
    <title>jishi_icon_sousuo</title>
    <desc>Created with Sketch.</desc>
    <defs></defs>
    <g id="1期" stroke="none" stroke-width="1" fill="none" fill-rule="evenodd">
        <g id="jishi_icon_sousuo" transform="translate(-4.000000, -4.000000)" fill="#8E8E93">
            <path d="M22.642042,19.6375927 C22.642042,19.6375927 22.6269374,19.4107783 22.5975231,18.9853059 C22.5959332,18.7717876 22.5434645,18.5129064 22.4814561,18.2110087 C22.4385272,17.9052004 22.3216652,17.5681073 22.1904936,17.1950368 C21.9289453,16.4543707 21.4797818,15.5862192 20.7523754,14.7861121 C20.0368938,13.9789659 19.0789434,13.2343891 17.961997,12.6556215 C17.3880217,12.3920476 16.8045067,12.1136134 16.1629582,11.9345083 C15.5357192,11.7241185 14.8345472,11.615404 14.2176431,11.5465776 C14.0602371,11.5215498 13.8257181,11.5285889 13.6317431,11.5184213 L13.3256759,11.5090359 L13.1714499,11.5043432 C13.1078515,11.502779 13.2366382,11.5051253 13.2167637,11.5051253 L13.2000692,11.5066895 L13.16668,11.5090359 L13.0999017,11.5145107 C12.7429559,11.5411028 12.3780602,11.529371 12.0179345,11.602108 C11.2881432,11.6826662 10.5750465,11.9173017 9.86035981,12.1754008 C9.14726311,12.4499244 8.48186517,12.8597544 7.83952165,13.3188579 C7.20910282,13.7982965 6.65420705,14.3833211 6.1533699,15.023094 C5.67161225,15.6777271 5.27253249,16.4004045 4.94738583,17.1707912 C4.80587946,17.5634146 4.64608856,17.9615129 4.56341068,18.35179 C4.43939386,18.7053075 4.40441476,19.256701 4.33445655,19.6375927 C4.2740381,20.4963587 4.31617202,21.3762419 4.51809684,22.2318795 C4.74625599,23.0773495 5.09127714,23.8970096 5.57780466,24.6290725 C6.54449986,26.1010193 8.04860129,27.1506223 9.61471112,27.6433569 C10.3922012,27.8748639 11.2150051,28.0359803 11.9368466,28.0453657 C12.269943,28.086818 12.7246713,28.0508406 13.1309059,28.0477121 C13.4298183,28.027377 13.8463876,27.9867068 14.1842539,27.9366513 C15.6017026,27.7090548 16.8681051,27.2491692 17.9945912,26.6664909 C19.1035877,26.0619134 20.0559733,25.3118618 20.771455,24.5015872 C21.5004513,23.6983515 21.94087,22.8255074 22.213548,22.0864055 C22.3439246,21.7117707 22.4504519,21.3723313 22.4925858,21.0696515 C22.5522093,20.769318 22.603883,20.511219 22.603088,20.2930079 C22.6285273,19.8612785 22.642042,19.6313357 22.642042,19.6313357 L22.642042,19.6375927 Z M22.876701,19.7294619 C22.8720977,19.8324045 22.863429,20.0267529 22.8511216,20.3047397 C22.8487367,20.5198223 22.8232973,20.7880889 22.7795734,21.1064111 C22.7517492,21.4278617 22.6905357,21.7884183 22.603088,22.1919914 C22.4289874,22.9952271 22.174594,23.9885175 21.626058,25.0529806 C21.0870619,26.1127511 20.2769776,27.2773254 19.0479392,28.2143033 C17.8355953,29.1583202 16.2019122,29.8325063 14.4187729,29.9811088 C13.9576847,30.0006618 13.55622,30.0100472 13.0315335,29.9842373 C12.6149642,29.9302711 12.2293991,29.9013327 11.7309468,29.7801044 C10.7729964,29.5900496 9.93588288,29.2216718 9.10035931,28.7844676 C8.27199056,28.3425707 7.52868462,27.7614567 6.82194775,27.1498401 C6.13906026,26.5045924 5.52295107,25.795211 4.9720302,25.0248244 C4.4417788,24.2411417 4.00851491,23.3862863 3.66667368,22.4852859 C3.33278224,21.5795927 3.13403734,20.6207155 3.02910003,19.6375927 C3.02433015,19.1002773 2.96709162,18.7248605 3.02751007,18.1726849 C3.04738456,17.6455371 3.14596203,17.1582773 3.23738469,16.6624142 C3.48303339,15.6863304 3.86144368,14.7352744 4.39725994,13.874162 C4.94182097,13.0216529 5.59926911,12.2434451 6.3521148,11.5747338 C7.1160902,10.9224471 7.95320373,10.3585397 8.85471061,9.94636329 C9.75303757,9.53575112 10.6990633,9.24089247 11.6498589,9.12279259 C12.1220768,9.03284897 12.5958847,9.02815626 13.0625377,9.00391059 L13.1499854,9.00156424 L13.1937093,9 L13.3002366,9.00156424 L13.4536676,9.01251389 L13.7597348,9.03284897 C13.9719944,9.05240193 14.1452999,9.04927346 14.3861787,9.08603303 C14.8552167,9.16580911 15.348899,9.22759646 15.7575186,9.36212083 C15.9689831,9.42312607 16.1788577,9.48334919 16.3871424,9.54279019 C16.5914522,9.61396296 16.7870172,9.7046887 16.9841721,9.78446478 C17.7719969,10.102787 18.4668091,10.5423375 19.0797383,11.0131728 C20.300827,11.9759606 21.1069363,13.1460098 21.6451375,14.2096908 C22.1952634,15.2772825 22.4417071,16.2752656 22.6253474,17.076937 C22.7127952,17.4820743 22.7628789,17.8449773 22.7907032,18.1632994 C22.8320421,18.4792753 22.8566865,18.748324 22.8566865,18.9673172 C22.8667764,19.2447671 22.8736647,19.4400091 22.8773516,19.5456476 C23.1321889,19.5159497 23.7891499,19.4417347 24.6732149,19.3591585 C25.8211654,19.2324553 27.3507062,19.1339084 28.880247,19.0118979 C29.6458123,18.959496 30.4105827,18.8374855 31.1276543,18.8226253 C31.8447259,18.8257538 32.5140988,18.906312 33.0872791,19.0118979 C34.2352296,19.2082097 35,19.5593808 35,19.5593808 L35,19.7158045 C35,19.7158045 34.2352296,20.0669757 33.0872791,20.2632874 C32.5140988,20.3688734 31.8447259,20.4494316 31.1276543,20.4525601 C30.4105827,20.4376998 29.6458123,20.3156893 28.880247,20.2632874 C27.3507062,20.1412769 25.8211654,20.04273 24.6732149,19.9160268 C23.7883966,19.8333803 23.1310695,19.7591091 22.876701,19.7294619 Z" id="Combined-Shape" transform="translate(19.000000, 19.500000) rotate(-315.000000) translate(-19.000000, -19.500000) "></path>
        </g>
    </g>
</svg>